<svg width="98" height="28" viewBox="0 0 98 28" fill="none" xmlns="http://www.w3.org/2000/svg">
<path d="M96.5385 24.7709C96.5385 26.263 95.3047 27.4717 93.7785 27.4717H3.456C1.93058 27.4717 0.692383 26.263 0.692383 24.7709V3.23267C0.692383 1.74122 1.93058 0.52832 3.456 0.52832H93.7778C95.3047 0.52832 96.5378 1.74122 96.5378 3.23267L96.5385 24.7709Z" fill="black"/>
<path d="M93.4871 0.560873C95.1492 0.560873 96.5016 1.8795 96.5016 3.5V24.5C96.5016 26.1205 95.1492 27.4391 93.4871 27.4391H3.74355C2.0815 27.4391 0.729065 26.1205 0.729065 24.5V3.5C0.729065 1.8795 2.0815 0.560873 3.74355 0.560873H93.4871ZM93.4871 -8.82301e-07H3.74355C1.77009 -8.82301e-07 0.153809 1.57587 0.153809 3.5V24.5C0.153809 26.4241 1.77009 28 3.74355 28H93.4871C95.4606 28 97.0769 26.4241 97.0769 24.5V3.5C97.0769 1.57587 95.4606 -8.82301e-07 93.4871 -8.82301e-07Z" fill="#A6A6A6"/>
<path d="M21.7841 13.8487C21.7633 11.5926 23.6787 10.495 23.7663 10.4439C22.6815 8.90181 21.0001 8.69111 20.4092 8.67431C18.997 8.52941 17.6272 9.49821 16.9078 9.49821C16.174 9.49821 15.0662 8.68831 13.8723 8.71211C12.3359 8.73521 10.8985 9.60251 10.1102 10.9493C8.48336 13.6954 9.69669 17.7309 11.2554 19.9506C12.035 21.0377 12.9461 22.2515 14.1386 22.2088C15.3053 22.1619 15.7411 21.4836 17.149 21.4836C18.544 21.4836 18.9532 22.2088 20.1694 22.1815C21.4215 22.1619 22.2098 21.0895 22.9622 19.9926C23.8633 18.7466 24.2251 17.5195 24.2395 17.4565C24.21 17.4467 21.8078 16.5528 21.7841 13.8487Z" fill="white"/>
<path d="M19.4866 7.21411C20.1141 6.44901 20.5435 5.40811 20.4243 4.35181C19.5161 4.39101 18.3803 4.96431 17.7262 5.71261C17.1476 6.37201 16.6306 7.45281 16.7642 8.46921C17.7844 8.54341 18.8319 7.96731 19.4866 7.21411Z" fill="white"/>
<path d="M35.3692 7.00634C35.3692 7.83024 35.1158 8.45044 34.6097 8.86694C34.1408 9.25124 33.4746 9.44374 32.6116 9.44374C32.1837 9.44374 31.8176 9.42554 31.511 9.38914V4.88744C31.9109 4.82444 32.3417 4.79224 32.8069 4.79224C33.6289 4.79224 34.2485 4.96654 34.6664 5.31514C35.1345 5.70924 35.3692 6.27274 35.3692 7.00634ZM34.5759 7.02664C34.5759 6.49254 34.4309 6.08304 34.1408 5.79744C33.8508 5.51254 33.4272 5.36974 32.8693 5.36974C32.6324 5.36974 32.4307 5.38514 32.2634 5.41734V8.83964C32.356 8.85364 32.5254 8.85994 32.7717 8.85994C33.3475 8.85994 33.7919 8.70384 34.1049 8.39164C34.418 8.07944 34.5759 7.62444 34.5759 7.02664Z" fill="white"/>
<path d="M39.5755 7.72593C39.5755 8.23343 39.4269 8.64923 39.1297 8.97543C38.8181 9.31073 38.4053 9.47803 37.8898 9.47803C37.3929 9.47803 36.9974 9.31773 36.7023 8.99573C36.4079 8.67443 36.2607 8.26913 36.2607 7.78053C36.2607 7.26953 36.4122 6.85023 36.7166 6.52473C37.021 6.19923 37.4303 6.03613 37.9458 6.03613C38.4426 6.03613 38.8418 6.19643 39.144 6.51773C39.4312 6.82993 39.5755 7.23313 39.5755 7.72593ZM38.7951 7.74973C38.7951 7.44523 38.7276 7.18413 38.5934 6.96643C38.4354 6.70323 38.2107 6.57163 37.9185 6.57163C37.6162 6.57163 37.3865 6.70323 37.2285 6.96643C37.0936 7.18413 37.0268 7.44943 37.0268 7.76303C37.0268 8.06753 37.0943 8.32863 37.2285 8.54633C37.3915 8.80953 37.6184 8.94113 37.9113 8.94113C38.1985 8.94113 38.4239 8.80743 38.5862 8.53933C38.7255 8.31743 38.7951 8.05423 38.7951 7.74973Z" fill="white"/>
<path d="M45.2158 6.10327L44.1569 9.40307H43.4676L43.029 7.97017C42.9177 7.61247 42.8272 7.25687 42.7569 6.90407H42.7432C42.6779 7.26667 42.5874 7.62157 42.4711 7.97017L42.0052 9.40307H41.308L40.3123 6.10327H41.0855L41.4682 7.67197C41.5608 8.04297 41.6369 8.39647 41.6979 8.73107H41.7115C41.7675 8.45527 41.8602 8.10387 41.9908 7.67897L42.4711 6.10397H43.0843L43.5445 7.64537C43.6557 8.02127 43.7462 8.38317 43.8158 8.73177H43.8367C43.8876 8.39227 43.9645 8.03037 44.0664 7.64537L44.4771 6.10397H45.2158V6.10327Z" fill="white"/>
<path d="M49.1165 9.40316H48.3641V7.51316C48.3641 6.93076 48.1372 6.63956 47.682 6.63956C47.4587 6.63956 47.2785 6.71936 47.1385 6.87966C47 7.03996 46.9296 7.22896 46.9296 7.44526V9.40246H46.1772V7.04626C46.1772 6.75646 46.1679 6.44216 46.1499 6.10196H46.8111L46.8463 6.61786H46.8671C46.9547 6.45756 47.0854 6.32526 47.257 6.21956C47.4609 6.09636 47.6892 6.03406 47.939 6.03406C48.2549 6.03406 48.5177 6.13346 48.7266 6.33296C48.9865 6.57726 49.1165 6.94196 49.1165 7.42636V9.40316V9.40316Z" fill="white"/>
<path d="M51.1914 9.40313H50.4397V4.58923H51.1914V9.40313Z" fill="white"/>
<path d="M55.6212 7.72593C55.6212 8.23343 55.4726 8.64923 55.1753 8.97543C54.8637 9.31073 54.4502 9.47803 53.9354 9.47803C53.4379 9.47803 53.0423 9.31773 52.7479 8.99573C52.4536 8.67443 52.3064 8.26913 52.3064 7.78053C52.3064 7.26953 52.4579 6.85023 52.7623 6.52473C53.0667 6.19923 53.4759 6.03613 53.9907 6.03613C54.4882 6.03613 54.8867 6.19643 55.1897 6.51773C55.4769 6.82993 55.6212 7.23313 55.6212 7.72593ZM54.84 7.74973C54.84 7.44523 54.7726 7.18413 54.6383 6.96643C54.4811 6.70323 54.2556 6.57163 53.9641 6.57163C53.6612 6.57163 53.4314 6.70323 53.2742 6.96643C53.1392 7.18413 53.0724 7.44943 53.0724 7.76303C53.0724 8.06753 53.1399 8.32863 53.2742 8.54633C53.4372 8.80953 53.664 8.94113 53.957 8.94113C54.2441 8.94113 54.4689 8.80743 54.6311 8.53933C54.7711 8.31743 54.84 8.05423 54.84 7.74973Z" fill="white"/>
<path d="M59.2626 9.40313H58.587L58.531 9.02303H58.5102C58.279 9.32613 57.9495 9.47803 57.5216 9.47803C57.2021 9.47803 56.9436 9.37793 56.7491 9.17913C56.5724 8.99853 56.4841 8.77383 56.4841 8.50713C56.4841 8.10393 56.6564 7.79663 57.0032 7.58383C57.3493 7.37103 57.836 7.26673 58.4628 7.27163V7.21003C58.4628 6.77533 58.2287 6.55833 57.7599 6.55833C57.4261 6.55833 57.1317 6.64023 56.8776 6.80263L56.7246 6.32103C57.0391 6.13133 57.4275 6.03613 57.8856 6.03613C58.7701 6.03613 59.2138 6.49113 59.2138 7.40113V8.61633C59.2138 8.94603 59.2303 9.20853 59.2626 9.40313ZM58.4815 8.26913V7.76023C57.6515 7.74623 57.2365 7.96813 57.2365 8.42523C57.2365 8.59743 57.2839 8.72623 57.3808 8.81233C57.4778 8.89843 57.6013 8.94113 57.7484 8.94113C57.9136 8.94113 58.0679 8.89003 58.2086 8.78853C58.3501 8.68633 58.4369 8.55683 58.4693 8.39793C58.4772 8.36223 58.4815 8.31883 58.4815 8.26913Z" fill="white"/>
<path d="M63.5379 9.40313H62.8702L62.835 8.87323H62.8142C62.601 9.27643 62.2377 9.47803 61.7272 9.47803C61.3194 9.47803 60.9798 9.32193 60.7106 9.00973C60.4414 8.69753 60.3071 8.29223 60.3071 7.79453C60.3071 7.26043 60.4529 6.82783 60.7458 6.49743C61.0294 6.18943 61.3769 6.03543 61.7904 6.03543C62.2449 6.03543 62.5629 6.18453 62.7438 6.48343H62.7582V4.58923H63.5113V8.51413C63.5113 8.83543 63.5199 9.13153 63.5379 9.40313ZM62.7582 8.01153V7.46133C62.7582 7.36613 62.751 7.28913 62.7374 7.23033C62.695 7.05393 62.6038 6.90553 62.4653 6.78583C62.3253 6.66613 62.1566 6.60593 61.962 6.60593C61.6813 6.60593 61.4616 6.71443 61.3 6.93213C61.1399 7.14983 61.0588 7.42773 61.0588 7.76723C61.0588 8.09343 61.1356 8.35803 61.29 8.56173C61.453 8.77873 61.6727 8.88723 61.9476 8.88723C62.1946 8.88723 62.392 8.79693 62.5421 8.61563C62.6871 8.44833 62.7582 8.24673 62.7582 8.01153Z" fill="white"/>
<path d="M69.973 7.72593C69.973 8.23343 69.8244 8.64923 69.5271 8.97543C69.2155 9.31073 68.8034 9.47803 68.2872 9.47803C67.7911 9.47803 67.3955 9.31773 67.0997 8.99573C66.8054 8.67443 66.6582 8.26913 66.6582 7.78053C66.6582 7.26953 66.8097 6.85023 67.1141 6.52473C67.4185 6.19923 67.8277 6.03613 68.3439 6.03613C68.84 6.03613 69.2399 6.19643 69.5415 6.51773C69.8287 6.82993 69.973 7.23313 69.973 7.72593ZM69.1933 7.74973C69.1933 7.44523 69.1258 7.18413 68.9915 6.96643C68.8329 6.70323 68.6089 6.57163 68.3159 6.57163C68.0144 6.57163 67.7847 6.70323 67.626 6.96643C67.491 7.18413 67.4243 7.44943 67.4243 7.76303C67.4243 8.06753 67.4917 8.32863 67.626 8.54633C67.789 8.80953 68.0158 8.94113 68.3088 8.94113C68.5959 8.94113 68.8221 8.80743 68.9844 8.53933C69.1229 8.31743 69.1933 8.05423 69.1933 7.74973Z" fill="white"/>
<path d="M74.0183 9.40316H73.2666V7.51316C73.2666 6.93076 73.0398 6.63956 72.5839 6.63956C72.3606 6.63956 72.1804 6.71936 72.0411 6.87966C71.9018 7.03996 71.8322 7.22896 71.8322 7.44526V9.40246H71.0791V7.04626C71.0791 6.75646 71.0704 6.44216 71.0525 6.10196H71.713L71.7482 6.61786H71.769C71.8573 6.45756 71.988 6.32526 72.1588 6.21956C72.3635 6.09636 72.5911 6.03406 72.8416 6.03406C73.1568 6.03406 73.4196 6.13346 73.6285 6.33296C73.8891 6.57726 74.0183 6.94196 74.0183 7.42636V9.40316V9.40316Z" fill="white"/>
<path d="M79.0822 6.65279H78.2537V8.25579C78.2537 8.66319 78.4009 8.86689 78.6924 8.86689C78.8273 8.86689 78.9394 8.85569 79.0277 8.83259L79.047 9.38909C78.8984 9.44369 78.7031 9.47099 78.4626 9.47099C78.1654 9.47099 77.9342 9.38279 77.7669 9.20639C77.5989 9.02999 77.5157 8.73319 77.5157 8.31669V6.65279H77.021V6.10329H77.5157V5.49849L78.253 5.28149V6.10259H79.0815V6.65279H79.0822Z" fill="white"/>
<path d="M83.0655 9.40313H82.3124V7.52713C82.3124 6.93563 82.0855 6.63953 81.631 6.63953C81.2821 6.63953 81.0438 6.81103 80.9131 7.15403C80.8908 7.22613 80.8779 7.31433 80.8779 7.41793V9.40243H80.1262V4.58923H80.8779V6.57793H80.8923C81.1292 6.21603 81.4688 6.03543 81.9089 6.03543C82.2205 6.03543 82.4782 6.13483 82.6828 6.33433C82.9377 6.58283 83.0655 6.95243 83.0655 7.44103V9.40313V9.40313Z" fill="white"/>
<path d="M87.1742 7.59708C87.1742 7.72868 87.1642 7.83928 87.1462 7.92958H84.8897C84.8997 8.25578 85.0074 8.50429 85.2164 8.67649C85.4073 8.83049 85.6536 8.90749 85.9551 8.90749C86.289 8.90749 86.5934 8.85568 86.8676 8.75138L86.9854 9.26098C86.6645 9.39678 86.2868 9.46468 85.8496 9.46468C85.3255 9.46468 84.9127 9.31419 84.614 9.01319C84.3139 8.71219 84.1653 8.30829 84.1653 7.80149C84.1653 7.30379 84.3038 6.88938 84.5831 6.55898C84.8746 6.20618 85.2688 6.02979 85.7663 6.02979C86.2531 6.02979 86.6228 6.20618 86.8727 6.55898C87.0744 6.83898 87.1742 7.18548 87.1742 7.59708ZM86.4563 7.40738C86.462 7.18968 86.4125 7.00209 86.3105 6.84389C86.1798 6.64019 85.981 6.53799 85.7117 6.53799C85.4662 6.53799 85.2659 6.63739 85.113 6.83689C84.9881 6.99579 84.9141 7.18548 84.8897 7.40738H86.4563Z" fill="white"/>
<path d="M38.6682 22.0528H37.0377L36.1446 19.3165H33.0402L32.1894 22.0528H30.6021L33.6777 12.7372H35.5774L38.6682 22.0528ZM35.8754 18.1685L35.0677 15.736C34.9823 15.4875 34.8222 14.9023 34.5859 13.9811H34.5572C34.4632 14.3773 34.3117 14.9625 34.1035 15.736L33.3102 18.1685H35.8754V18.1685Z" fill="white"/>
<path d="M46.5777 18.6115C46.5777 19.7539 46.2611 20.6569 45.6278 21.3198C45.0607 21.9099 44.3563 22.2046 43.5156 22.2046C42.6081 22.2046 41.9562 21.8868 41.5592 21.2512H41.5305V24.7897H39.9998V17.5468C39.9998 16.8286 39.9804 16.0915 39.9431 15.3355H41.2893L41.3747 16.4002H41.4034C41.9139 15.598 42.6886 15.1976 43.7281 15.1976C44.5409 15.1976 45.2193 15.5105 45.7621 16.137C46.3063 16.7642 46.5777 17.5888 46.5777 18.6115ZM45.0183 18.6661C45.0183 18.0123 44.8675 17.4733 44.5646 17.0491C44.2336 16.6067 43.7892 16.3855 43.232 16.3855C42.8544 16.3855 42.5112 16.5087 42.2047 16.7516C41.8974 16.9966 41.6963 17.3165 41.6023 17.7127C41.5549 17.8975 41.5312 18.0487 41.5312 18.1677V19.2877C41.5312 19.7763 41.6849 20.1886 41.9921 20.5253C42.2994 20.862 42.6986 21.03 43.1897 21.03C43.7662 21.03 44.2149 20.813 44.5358 20.3804C44.8575 19.9471 45.0183 19.3759 45.0183 18.6661Z" fill="white"/>
<path d="M54.5018 18.6115C54.5018 19.7539 54.1852 20.6569 53.5512 21.3198C52.9847 21.9099 52.2804 22.2046 51.4397 22.2046C50.5322 22.2046 49.8803 21.8868 49.484 21.2512H49.4553V24.7897H47.9246V17.5468C47.9246 16.8286 47.9053 16.0915 47.8679 15.3355H49.2141L49.2995 16.4002H49.3282C49.838 15.598 50.6126 15.1976 51.6529 15.1976C52.4649 15.1976 53.1434 15.5105 53.6876 16.137C54.2297 16.7642 54.5018 17.5888 54.5018 18.6115ZM52.9424 18.6661C52.9424 18.0123 52.7909 17.4733 52.4879 17.0491C52.1569 16.6067 51.714 16.3855 51.1561 16.3855C50.7778 16.3855 50.4353 16.5087 50.128 16.7516C49.8207 16.9966 49.6204 17.3165 49.5264 17.7127C49.4797 17.8975 49.4553 18.0487 49.4553 18.1677V19.2877C49.4553 19.7763 49.6089 20.1886 49.9148 20.5253C50.2221 20.8613 50.6213 21.03 51.1138 21.03C51.6903 21.03 52.139 20.813 52.4599 20.3804C52.7816 19.9471 52.9424 19.3759 52.9424 18.6661Z" fill="white"/>
<path d="M63.3612 19.4404C63.3612 20.2328 63.0791 20.8775 62.5126 21.3752C61.8901 21.9191 61.0236 22.1907 59.91 22.1907C58.8819 22.1907 58.0577 21.9975 57.4338 21.6104L57.7885 20.3665C58.4605 20.7627 59.1978 20.9615 60.0012 20.9615C60.5777 20.9615 61.0265 20.8341 61.3488 20.5807C61.6697 20.3273 61.8298 19.9871 61.8298 19.5629C61.8298 19.1849 61.6977 18.8664 61.4328 18.6081C61.1693 18.3498 60.7292 18.1097 60.1147 17.8878C58.4418 17.2795 57.6061 16.3884 57.6061 15.2166C57.6061 14.4508 57.8991 13.8229 58.4856 13.3343C59.07 12.845 59.8497 12.6007 60.8247 12.6007C61.6941 12.6007 62.4164 12.7484 62.9929 13.0431L62.6102 14.2597C62.0718 13.9741 61.463 13.8313 60.7816 13.8313C60.2432 13.8313 59.8225 13.9608 59.5209 14.2184C59.266 14.4487 59.1382 14.7294 59.1382 15.0619C59.1382 15.4301 59.284 15.7346 59.5769 15.974C59.8318 16.1952 60.2949 16.4346 60.9669 16.6929C61.7889 17.0156 62.3927 17.3929 62.7811 17.8255C63.1681 18.2567 63.3612 18.7964 63.3612 19.4404Z" fill="white"/>
<path d="M68.422 16.4556H66.7348V19.7169C66.7348 20.5464 67.0321 20.9608 67.628 20.9608C67.9015 20.9608 68.1284 20.9377 68.3079 20.8915L68.3502 22.0248C68.0487 22.1347 67.6517 22.19 67.1599 22.19C66.5553 22.19 66.0829 22.0101 65.7419 21.651C65.4023 21.2912 65.2314 20.6878 65.2314 19.8401V16.4542H64.2263V15.3342H65.2314V14.1043L66.7348 13.6619V15.3342H68.422V16.4556Z" fill="white"/>
<path d="M76.0344 18.6389C76.0344 19.6714 75.7314 20.5191 75.1269 21.182C74.4929 21.8645 73.6515 22.2047 72.6026 22.2047C71.5917 22.2047 70.7869 21.8778 70.1867 21.224C69.5865 20.5702 69.2864 19.7449 69.2864 18.7502C69.2864 17.7093 69.5951 16.8567 70.2147 16.1938C70.8328 15.5302 71.6671 15.1984 72.716 15.1984C73.7269 15.1984 74.5403 15.5253 75.1542 16.1798C75.7414 16.8147 76.0344 17.6344 76.0344 18.6389ZM74.4463 18.6872C74.4463 18.0677 74.3106 17.5364 74.0356 17.0933C73.7147 16.5571 73.2559 16.2897 72.6615 16.2897C72.0462 16.2897 71.5788 16.5578 71.2579 17.0933C70.9829 17.5371 70.8472 18.0768 70.8472 18.7152C70.8472 19.3347 70.9829 19.866 71.2579 20.3084C71.5888 20.8446 72.0512 21.112 72.6478 21.112C73.2322 21.112 73.691 20.839 74.022 20.2944C74.3041 19.8429 74.4463 19.306 74.4463 18.6872Z" fill="white"/>
<path d="M81.0099 16.648C80.8585 16.6207 80.6969 16.6067 80.5275 16.6067C79.989 16.6067 79.5726 16.8048 79.2797 17.2017C79.0248 17.5517 78.897 17.9941 78.897 18.5282V22.0527H77.367L77.3814 17.4509C77.3814 16.6767 77.362 15.9718 77.324 15.3362H78.6572L78.7132 16.6214H78.7556C78.9171 16.1797 79.172 15.8241 79.5209 15.5574C79.8619 15.3173 80.2302 15.1976 80.6273 15.1976C80.7687 15.1976 80.8965 15.2074 81.0099 15.2249V16.648Z" fill="white"/>
<path d="M87.8556 18.3764C87.8556 18.6438 87.8376 18.8692 87.7996 19.0533H83.2076C83.2255 19.7169 83.4474 20.2244 83.8738 20.5744C84.2608 20.8873 84.7612 21.0441 85.3758 21.0441C86.0557 21.0441 86.676 20.9384 87.2338 20.7263L87.4736 21.7623C86.8217 22.0395 86.0521 22.1774 85.164 22.1774C84.0957 22.1774 83.2571 21.8708 82.6469 21.2583C82.038 20.6458 81.7329 19.8233 81.7329 18.7915C81.7329 17.7786 82.0165 16.9351 82.5844 16.2624C83.1789 15.5442 83.9822 15.1851 84.9931 15.1851C85.986 15.1851 86.7377 15.5442 87.2482 16.2624C87.6524 16.8329 87.8556 17.5385 87.8556 18.3764ZM86.396 17.9893C86.406 17.5469 86.3062 17.1647 86.0988 16.842C85.8338 16.4269 85.4268 16.2197 84.879 16.2197C84.3786 16.2197 83.9715 16.422 83.6606 16.828C83.4057 17.1507 83.2542 17.5378 83.2076 17.9886H86.396V17.9893Z" fill="white"/>
</svg>
