<svg width="97" height="28" viewBox="0 0 97 28" fill="none" xmlns="http://www.w3.org/2000/svg">
<path d="M93.4102 28H3.66665C1.69319 28 0.0769043 26.4241 0.0769043 24.5V3.5C0.0769043 1.57587 1.69319 -8.82301e-07 3.66665 -8.82301e-07H93.4102C95.3837 -8.82301e-07 97 1.57587 97 3.5V24.5C97 26.4241 95.3837 28 93.4102 28Z" fill="black"/>
<path d="M93.4102 0.560873C95.0723 0.560873 96.4247 1.8795 96.4247 3.5V24.5C96.4247 26.1205 95.0723 27.4391 93.4102 27.4391H3.66665C2.0046 27.4391 0.652161 26.1205 0.652161 24.5V3.5C0.652161 1.8795 2.0046 0.560873 3.66665 0.560873H93.4102ZM93.4102 -8.82301e-07H3.66665C1.69319 -8.82301e-07 0.0769043 1.57587 0.0769043 3.5V24.5C0.0769043 26.4241 1.69319 28 3.66665 28H93.4102C95.3837 28 97 26.4241 97 24.5V3.5C97 1.57587 95.3837 -8.82301e-07 93.4102 -8.82301e-07Z" fill="#A6A6A6"/>
<path d="M7.56854 5.27706C7.35765 5.49231 7.2356 5.82743 7.2356 6.26143V21.7419C7.2356 22.1759 7.35765 22.5111 7.56854 22.7263L7.6206 22.7736L16.5178 14.1023V13.8976L7.6206 5.22631L7.56854 5.27706Z" fill="url(#paint0_linear_278_161)"/>
<path d="M19.4803 16.9943L16.5178 14.1024V13.8976L19.4838 11.0058L19.5503 11.0434L23.0628 12.992C24.0653 13.545 24.0653 14.455 23.0628 15.0115L19.5503 16.9566L19.4803 16.9943V16.9943Z" fill="url(#paint1_linear_278_161)"/>
<path d="M19.5503 16.9566L16.5178 14L7.5686 22.7264C7.90155 23.0676 8.4445 23.1087 9.06194 22.7675L19.5503 16.9566" fill="url(#paint2_linear_278_161)"/>
<path d="M19.5503 11.0434L9.06194 5.2325C8.4445 4.89475 7.90155 4.93588 7.5686 5.27713L16.5178 14L19.5503 11.0434Z" fill="url(#paint3_linear_278_161)"/>
<path d="M34.1202 7.17054C34.1202 7.75504 33.9407 8.22317 33.5872 8.5723C33.1806 8.98617 32.6511 9.19442 32.0023 9.19442C31.3822 9.19442 30.8527 8.98267 30.4183 8.56529C29.983 8.14179 29.7659 7.62204 29.7659 6.99992C29.7659 6.37779 29.983 5.85805 30.4183 5.43805C30.8527 5.01717 31.3822 4.80542 32.0023 4.80542C32.311 4.80542 32.6054 4.86754 32.8863 4.98304C33.1663 5.09942 33.3942 5.25692 33.5593 5.45117L33.1842 5.82042C32.8961 5.4888 32.5039 5.32517 32.0023 5.32517C31.55 5.32517 31.1578 5.47917 30.8248 5.78979C30.4955 6.10129 30.3304 6.50467 30.3304 6.99992C30.3304 7.49517 30.4955 7.90204 30.8248 8.21354C31.1578 8.52067 31.55 8.67817 32.0023 8.67817C32.4824 8.67817 32.8863 8.52067 33.2048 8.21004C33.4148 8.00442 33.5342 7.72092 33.5656 7.35867H32.0023V6.85292H34.0879C34.113 6.96229 34.1202 7.06817 34.1202 7.17054V7.17054Z" fill="white" stroke="white" stroke-width="0.0861538" stroke-miterlimit="10"/>
<path d="M37.429 5.41711H35.4699V6.74711H37.2361V7.25286H35.4699V8.58286H37.429V9.09823H34.9153V4.90173H37.429V5.41711Z" fill="white" stroke="white" stroke-width="0.0861538" stroke-miterlimit="10"/>
<path d="M39.7643 9.09823H39.2097V5.41711H38.0081V4.90173H40.9669V5.41711H39.7643V9.09823V9.09823Z" fill="white" stroke="white" stroke-width="0.0861538" stroke-miterlimit="10"/>
<path d="M43.1082 9.09823V4.90173H43.6619V9.09823H43.1082Z" fill="white" stroke="white" stroke-width="0.0861538" stroke-miterlimit="10"/>
<path d="M46.1161 9.09823H45.566V5.41711H44.3599V4.90173H47.3223V5.41711H46.1161V9.09823Z" fill="white" stroke="white" stroke-width="0.0861538" stroke-miterlimit="10"/>
<path d="M52.9243 8.55829C52.4998 8.98267 51.9739 9.19442 51.3466 9.19442C50.7157 9.19442 50.1898 8.98267 49.7653 8.55829C49.3418 8.13479 49.1309 7.61504 49.1309 6.99992C49.1309 6.38479 49.3418 5.86504 49.7653 5.44154C50.1898 5.01717 50.7157 4.80542 51.3466 4.80542C51.9703 4.80542 52.4962 5.01717 52.9207 5.44504C53.3479 5.87204 53.5588 6.38829 53.5588 6.99992C53.5588 7.61504 53.3479 8.13479 52.9243 8.55829ZM50.1755 8.20654C50.495 8.52067 50.8836 8.67817 51.3466 8.67817C51.8061 8.67817 52.1983 8.52067 52.5142 8.20654C52.8328 7.89242 52.9943 7.48904 52.9943 6.99992C52.9943 6.51079 52.8328 6.10742 52.5142 5.7933C52.1983 5.47917 51.8061 5.32167 51.3466 5.32167C50.8836 5.32167 50.495 5.47917 50.1755 5.7933C49.8569 6.10742 49.6953 6.51079 49.6953 6.99992C49.6953 7.48904 49.8569 7.89242 50.1755 8.20654V8.20654Z" fill="white" stroke="white" stroke-width="0.0861538" stroke-miterlimit="10"/>
<path d="M54.3367 9.09823V4.90173H55.0097L57.1026 8.16548H57.1268L57.1026 7.35873V4.90173H57.6563V9.09823H57.0783L54.8868 5.67348H54.8626L54.8868 6.48373V9.09823H54.3367V9.09823Z" fill="white" stroke="white" stroke-width="0.0861538" stroke-miterlimit="10"/>
<path d="M48.9943 15.2268C47.308 15.2268 45.9305 16.478 45.9305 18.2044C45.9305 19.9167 47.308 21.1811 48.9943 21.1811C50.6842 21.1811 52.0618 19.9167 52.0618 18.2044C52.0618 16.478 50.6842 15.2268 48.9943 15.2268ZM48.9943 20.0086C48.0691 20.0086 47.273 19.264 47.273 18.2044C47.273 17.1307 48.0691 16.3993 48.9943 16.3993C49.9196 16.3993 50.7192 17.1307 50.7192 18.2044C50.7192 19.264 49.9196 20.0086 48.9943 20.0086V20.0086ZM42.3093 15.2268C40.6194 15.2268 39.2455 16.478 39.2455 18.2044C39.2455 19.9167 40.6194 21.1811 42.3093 21.1811C43.9983 21.1811 45.3732 19.9167 45.3732 18.2044C45.3732 16.478 43.9983 15.2268 42.3093 15.2268ZM42.3093 20.0086C41.3832 20.0086 40.5844 19.264 40.5844 18.2044C40.5844 17.1307 41.3832 16.3993 42.3093 16.3993C43.2346 16.3993 44.0306 17.1307 44.0306 18.2044C44.0306 19.264 43.2346 20.0086 42.3093 20.0086ZM34.3545 16.1394V17.4046H37.4533C37.3627 18.1116 37.1203 18.6314 36.7488 18.9936C36.2965 19.4311 35.592 19.9167 34.3545 19.9167C32.4474 19.9167 30.9541 18.4161 30.9541 16.5568C30.9541 14.6974 32.4474 13.1968 34.3545 13.1968C35.3856 13.1968 36.1359 13.5896 36.6896 14.0989L37.6041 13.2073C36.8296 12.4863 35.7993 11.9324 34.3545 11.9324C31.7393 11.9324 29.5415 14.007 29.5415 16.5568C29.5415 19.1065 31.7393 21.1811 34.3545 21.1811C35.7679 21.1811 36.8296 20.7296 37.6642 19.8826C38.5194 19.0487 38.786 17.8762 38.786 16.9295C38.786 16.6355 38.7609 16.3651 38.716 16.1394H34.3545ZM66.8829 17.1202C66.6307 16.4544 65.8526 15.2268 64.2678 15.2268C62.6973 15.2268 61.3897 16.4334 61.3897 18.2044C61.3897 19.8721 62.6838 21.1811 64.4185 21.1811C65.8212 21.1811 66.6307 20.3472 66.9637 19.8616L65.9226 19.1852C65.5753 19.6805 65.1024 20.0086 64.4185 20.0086C63.7392 20.0086 63.2519 19.705 62.9396 19.1065L67.0238 17.4589L66.8829 17.1202V17.1202ZM62.7188 18.1116C62.6838 16.9636 63.6333 16.3756 64.3135 16.3756C64.8466 16.3756 65.2989 16.6355 65.4497 17.0074L62.7188 18.1116V18.1116ZM59.3992 21H60.7417V12.25H59.3992V21ZM57.2005 15.89H57.1556C56.8541 15.5417 56.2788 15.2268 55.5501 15.2268C54.0209 15.2268 52.6227 16.5357 52.6227 18.214C52.6227 19.8826 54.0209 21.1811 55.5501 21.1811C56.2788 21.1811 56.8541 20.8635 57.1556 20.5047H57.2005V20.9317C57.2005 22.0701 56.5767 22.6817 55.5707 22.6817C54.7505 22.6817 54.2416 22.1042 54.0316 21.6186L52.8641 22.0937C53.2006 22.883 54.0918 23.8542 55.5707 23.8542C57.1448 23.8542 58.473 22.9512 58.473 20.7541V15.4079H57.2005V15.89V15.89ZM55.665 20.0086C54.7397 20.0086 53.9652 19.2535 53.9652 18.214C53.9652 17.1649 54.7397 16.3993 55.665 16.3993C56.5768 16.3993 57.2956 17.1649 57.2956 18.214C57.2956 19.2535 56.5768 20.0086 55.665 20.0086V20.0086ZM73.1685 12.25H69.9575V21H71.2965V17.6846H73.1685C74.6556 17.6846 76.1139 16.6355 76.1139 14.9669C76.1139 13.2991 74.652 12.25 73.1685 12.25V12.25ZM73.2035 16.4675H71.2965V13.4671H73.2035C74.2033 13.4671 74.7741 14.2765 74.7741 14.9669C74.7741 15.6441 74.2033 16.4675 73.2035 16.4675ZM81.4806 15.2101C80.5132 15.2101 79.5071 15.6266 79.0934 16.5497L80.2816 17.0354C80.5374 16.5497 81.0076 16.3922 81.5048 16.3922C82.1994 16.3922 82.9039 16.7991 82.9147 17.5175V17.6094C82.6724 17.4729 82.1537 17.2708 81.5156 17.2708C80.2358 17.2708 78.9319 17.9576 78.9319 19.2395C78.9319 20.412 79.9801 21.1671 81.1584 21.1671C82.0594 21.1671 82.5566 20.7707 82.8689 20.3096H82.9147V20.986H84.2079V17.6295C84.2079 16.0781 83.0197 15.2101 81.4806 15.2101ZM81.3191 20.0051C80.8811 20.0051 80.2708 19.7934 80.2708 19.264C80.2708 18.5867 81.0319 18.3269 81.6906 18.3269C82.2802 18.3269 82.5566 18.4537 82.9147 18.6209C82.8097 19.4311 82.0944 20.0051 81.3191 20.0051V20.0051ZM88.9194 15.4017L87.3803 19.1949H87.3346L85.7434 15.4017H84.2994L86.6902 20.7025L85.3261 23.6521H86.7252L90.4092 15.4017H88.9194V15.4017ZM76.8498 21H78.1924V12.25H76.8498V21Z" fill="white"/>
<defs>
<linearGradient id="paint0_linear_278_161" x1="15.7278" y1="21.9031" x2="3.98389" y2="9.85811" gradientUnits="userSpaceOnUse">
<stop stop-color="#00A0FF"/>
<stop offset="0.0066" stop-color="#00A1FF"/>
<stop offset="0.2601" stop-color="#00BEFF"/>
<stop offset="0.5122" stop-color="#00D2FF"/>
<stop offset="0.7604" stop-color="#00DFFF"/>
<stop offset="1" stop-color="#00E3FF"/>
</linearGradient>
<linearGradient id="paint1_linear_278_161" x1="24.3682" y1="13.999" x2="6.99603" y2="13.999" gradientUnits="userSpaceOnUse">
<stop stop-color="#FFE000"/>
<stop offset="0.4087" stop-color="#FFBD00"/>
<stop offset="0.7754" stop-color="#FFA500"/>
<stop offset="1" stop-color="#FF9C00"/>
</linearGradient>
<linearGradient id="paint2_linear_278_161" x1="17.9013" y1="12.3927" x2="1.97562" y2="-3.94134" gradientUnits="userSpaceOnUse">
<stop stop-color="#FF3A44"/>
<stop offset="1" stop-color="#C31162"/>
</linearGradient>
<linearGradient id="paint3_linear_278_161" x1="5.3159" y1="27.8767" x2="12.4274" y2="20.5828" gradientUnits="userSpaceOnUse">
<stop stop-color="#32A071"/>
<stop offset="0.0685" stop-color="#2DA771"/>
<stop offset="0.4762" stop-color="#15CF74"/>
<stop offset="0.8009" stop-color="#06E775"/>
<stop offset="1" stop-color="#00F076"/>
</linearGradient>
</defs>
</svg>
